<svg xmlns="http://www.w3.org/2000/svg" viewBox="0 0 7.11 0.58"><defs><style>.cls-1{fill:none;stroke:#221e20;stroke-miterlimit:10;stroke-width:0.3px;}.cls-2{fill:#221e20;}</style></defs><g id="Layer_2" data-name="Layer 2"><g id="Layer_1-2" data-name="Layer 1"><line class="cls-1" x1="0.3" y1="0.29" x2="6.82" y2="0.29"/><path class="cls-2" d="M-5.9-20.47a.29.29,0,0,1-.29.29h0a.29.29,0,0,1-.29-.29h0a.29.29,0,0,1,.29-.29h0a.28.28,0,0,1,.29.29Z" transform="translate(6.48 20.76)"/><path class="cls-2" d="M.63-20.47a.29.29,0,0,1-.29.29h0a.29.29,0,0,1-.29-.29h0a.29.29,0,0,1,.29-.29h0a.29.29,0,0,1,.29.29Z" transform="translate(6.48 20.76)"/></g></g></svg>