<svg xmlns="http://www.w3.org/2000/svg" viewBox="0 0 9.8 9.81"><defs><style>.cls-1,.cls-3{fill:none;stroke:#221e20;}.cls-1{stroke-miterlimit:10;stroke-width:0.3px;}.cls-2{fill:#221e20;}.cls-3{stroke-miterlimit:10;stroke-width:0.3px;}</style></defs><g id="Layer_2" data-name="Layer 2"><g id="Layer_1-2" data-name="Layer 1"><rect class="cls-1" x="1.63" y="1.67" width="6.52" height="6.52" transform="translate(-2.05 4.9) rotate(-45)"/><path class="cls-2" d="M9.8,4.9a.29.29,0,0,1-.29.29h0a.29.29,0,0,1-.29-.29h0a.29.29,0,0,1,.29-.29h0a.3.3,0,0,1,.29.29Z"/><path class="cls-2" d="M5.19.29A.29.29,0,0,1,4.9.58h0A.29.29,0,0,1,4.61.29h0A.29.29,0,0,1,4.9,0h0a.3.3,0,0,1,.29.29Z"/><path class="cls-2" d="M.58,4.9a.29.29,0,0,1-.29.29h0A.29.29,0,0,1,0,4.9H0a.29.29,0,0,1,.29-.29h0a.3.3,0,0,1,.29.29Z"/><path class="cls-2" d="M5.19,9.52a.29.29,0,0,1-.29.29h0a.29.29,0,0,1-.29-.29h0a.29.29,0,0,1,.29-.29h0a.29.29,0,0,1,.29.29Z"/><line class="cls-3" x1="0.29" y1="4.9" x2="9.51" y2="4.9"/><line class="cls-3" x1="4.9" y1="9.52" x2="4.9" y2="0.29"/><path class="cls-2" d="M5.19,4.9a.29.29,0,0,1-.29.29h0a.29.29,0,0,1-.29-.29h0a.29.29,0,0,1,.29-.29h0a.3.3,0,0,1,.29.29Z"/></g></g></svg>