<svg xmlns="http://www.w3.org/2000/svg" viewBox="0 0 7.1 6.23"><defs><style>.cls-1{fill:none;stroke:#221e20;stroke-miterlimit:10;stroke-width:0.3px;}.cls-2{fill:#221e20;}</style></defs><g id="Layer_2" data-name="Layer 2"><g id="Layer_1-2" data-name="Layer 1"><line class="cls-1" x1="0.29" y1="5.94" x2="6.81" y2="5.94"/><path class="cls-2" d="M.58,5.94a.29.29,0,0,1-.29.29h0A.29.29,0,0,1,0,5.94H0a.29.29,0,0,1,.29-.29h0a.29.29,0,0,1,.29.29Z"/><path class="cls-2" d="M7.1,5.94a.29.29,0,0,1-.29.29h0a.29.29,0,0,1-.29-.29h0a.29.29,0,0,1,.29-.29h0a.29.29,0,0,1,.29.29Z"/><line class="cls-1" x1="0.22" y1="5.94" x2="3.48" y2="0.29"/><line class="cls-1" x1="6.74" y1="5.94" x2="3.48" y2="0.29"/><path class="cls-2" d="M3.76.29a.29.29,0,0,1-.29.29h0A.29.29,0,0,1,3.18.29h0A.29.29,0,0,1,3.47,0h0a.28.28,0,0,1,.29.29Z"/></g></g></svg>