<svg xmlns="http://www.w3.org/2000/svg" viewBox="0 0 9.82 9.9"><defs><style>.cls-1{fill:none;stroke:#221e20;stroke-miterlimit:10;stroke-width:0.3px;}.cls-2{fill:#221e20;}</style></defs><g id="Layer_2" data-name="Layer 2"><g id="Layer_1-2" data-name="Layer 1"><rect class="cls-1" x="1.58" y="1.65" width="6.59" height="6.59" transform="translate(-2.07 4.89) rotate(-45)"/><path class="cls-2" d="M9.82,5a.29.29,0,0,1-.29.29h0A.29.29,0,0,1,9.24,5h0a.29.29,0,0,1,.29-.29h0A.29.29,0,0,1,9.82,5Z"/><path class="cls-2" d="M5.16.29a.29.29,0,0,1-.29.29h0A.29.29,0,0,1,4.58.29h0A.29.29,0,0,1,4.87,0h0a.29.29,0,0,1,.29.29Z"/><path class="cls-2" d="M.59,5a.29.29,0,0,1-.29.29h0A.29.29,0,0,1,0,5H0A.29.29,0,0,1,.3,4.66h0A.29.29,0,0,1,.59,5Z"/><path class="cls-2" d="M5.16,9.61a.29.29,0,0,1-.29.29h0a.29.29,0,0,1-.29-.29h0a.29.29,0,0,1,.29-.29h0a.29.29,0,0,1,.29.29Z"/></g></g></svg>